<svg id="Layer_1" data-name="Layer 1" xmlns="http://www.w3.org/2000/svg" viewBox="0 0 430.54 284.95" width="28px" height="28px"><defs><style>.cls-1{fill:#fff;}</style></defs><title>game</title><path class="cls-1" d="M0.11,196.14c0.4-45.4,8.8-87.4,28.3-126.8,8.4-16.9,17.9-33.2,32-46.2,26.8-24.8,57.6-28.4,91.1-16.8A124.9,124.9,0,0,1,180.41,21c8.3,5.6,17.2,8.7,27.2,8.2a40.05,40.05,0,0,1,6,0c15.1,1.3,28.6-2.4,41.5-11A104,104,0,0,1,313.91,0c25.4,0,45.9,10.5,62.2,29.1,21.7,24.6,34.4,54.1,43.4,85.3a281.44,281.44,0,0,1,10.8,89.9c-0.8,18.4-2,37-8.1,54.6-6.2,17.9-19.3,26.8-38.1,25.7-10.2-.6-18-6.7-25.6-12.7-18.5-14.6-34.9-31.4-50.1-49.4-8.1-9.6-17.5-14.3-30.3-14.2q-63.45.6-127,.1c-11.7-.1-20.4,4.3-27.8,13-15,17.7-31,34.4-49.1,49a128.86,128.86,0,0,1-12.2,8.7c-17.8,11.7-43.9,5.9-53-18.8-5.3-14.4-6.6-29.5-7.9-44.6C0.51,208.74-.29,201.64.11,196.14ZM106.41,82v9c-0.1,6-.5,6.4-6.7,6.5s-12.7.1-19,0c-3.4-.1-5.3,1.3-6.2,4.5a33.91,33.91,0,0,0,.3,19.7c1.1,3.3,3.1,4.7,6.7,4.6,6.3-.2,12.7.1,19-0.1,3.5-.1,4.8,1.4,4.8,4.7-0.1,6.3.2,12.7-.1,19-0.1,4,1.6,6.3,5.2,7.4a29.57,29.57,0,0,0,18.6-.4c3.4-1.1,5.1-3.2,4.9-7-0.3-6.3,0-12.7-.1-19-0.1-3.4,1.2-4.8,4.6-4.7,6.8,0.2,13.7,0,20.5,0,2.2,0,4.3-.1,5.5-2.5,3.2-6.9,4.4-13.9,1.2-21.2-1.5-3.5-3.7-5.2-7.6-5-6.2.2-12.3,0-18.5,0.1-3.3,0-4.8-1.3-4.7-4.8,0.2-6.8-.1-13.7.1-20.5,0.1-3-1.1-4.6-3.9-5.4-6.7-1.9-13.4-2.5-20.2-.8-3.3.8-4.7,2.6-4.5,6C106.61,75.34,106.41,78.64,106.41,82Zm250,46.3a22.1,22.1,0,0,0,22.7-22.3,22.43,22.43,0,0,0-22.3-22.8,22.73,22.73,0,0,0-22.9,22.4A22.45,22.45,0,0,0,356.41,128.34Zm-80.1-57.4c-0.2,12.7,9.4,23,21.8,23.2a22.66,22.66,0,0,0,1.1-45.3A22.28,22.28,0,0,0,276.31,70.94Zm0,63.9c-0.3,12.7,9.3,23,21.7,23.3A22.66,22.66,0,1,0,276.31,134.84Z"/></svg>
