<?xml version="1.0" standalone="no"?>
<!-- Generator: Adobe Fireworks 10, Export SVG Extension by Aaron Beall (http://fireworks.abeall.com) . Version: 0.6.1  -->
<!DOCTYPE svg PUBLIC "-//W3C//DTD SVG 1.1//EN" "http://www.w3.org/Graphics/SVG/1.1/DTD/svg11.dtd">
<svg id="Untitled-Page%201" viewBox="0 0 32 22" style="background-color:#ffffff00" version="1.1"
	xmlns="http://www.w3.org/2000/svg" xmlns:xlink="http://www.w3.org/1999/xlink" xml:space="preserve"
	x="0px" y="0px" width="32px" height="22px"
>
	<g id="Layer%201">
		<path d="M 15.8559 1.1139 C 16.7207 1.1139 22.1982 0 23.0631 0 C 29.982 0 32 14.2025 32 16.9873 C 32 18.3797 32 22 29.6937 22 C 27.3874 22 25.9459 18.6582 23.3513 16.9873 C 21.3333 15.8734 18.1622 16.4304 15.8559 16.4304 C 13.5495 16.4304 10.3784 15.8734 8.6486 16.9873 C 6.6306 18.1013 4.6126 22 2.3063 22 C 0 22 0 18.3797 0 17.2658 C 0 14.2025 1.7297 0 8.9369 0 C 9.5135 0 15.2793 1.1139 15.8559 1.1139 ZM 23.9279 4.7342 C 23.9279 5.0127 24.2162 5.0127 24.2162 5.8481 C 24.2162 6.6835 23.0631 6.962 22.7748 6.962 C 21.9099 6.962 21.6216 6.1266 21.6216 5.8481 C 21.6216 5.0127 21.9099 5.0127 22.1982 4.7342 L 23.9279 4.7342 ZM 9.5135 8.6329 C 9.5135 10.5823 7.2072 11.4177 6.6306 11.4177 C 4.6126 11.4177 4.036 9.1899 4.036 8.6329 C 4.036 7.2405 5.4775 6.1266 6.6306 6.1266 C 8.6486 6.1266 9.5135 8.076 9.5135 8.6329 ZM 21.045 8.3544 L 21.045 9.7468 C 20.7568 9.7468 20.4685 10.0253 19.8919 10.0253 C 18.4504 10.0253 18.7387 8.9114 18.7387 8.6329 C 18.7387 7.7975 19.027 7.519 19.8919 7.519 C 20.4685 7.519 20.7568 7.7975 21.045 8.3544 ZM 27.0991 8.076 L 27.0991 9.7468 C 26.8108 9.7468 26.5225 10.0253 25.9459 10.0253 C 25.0811 10.0253 24.7928 9.4684 24.7928 8.9114 C 24.7928 8.3544 24.7928 7.519 25.9459 7.519 C 26.5225 7.519 26.8108 7.7975 27.0991 8.076 ZM 24.2162 11.6962 C 24.2162 12.2532 23.9279 12.5316 23.6396 12.8101 L 21.9099 12.8101 C 21.9099 12.5316 21.6216 12.2532 21.6216 11.6962 C 21.6216 11.1392 21.9099 10.5823 22.7748 10.5823 C 23.3513 10.5823 24.2162 11.1392 24.2162 11.6962 Z" fill="#ffffff"/>
	</g>
</svg>