<svg id="Layer_1" data-name="Layer 1" xmlns="http://www.w3.org/2000/svg" viewBox="0 0 422.04 408.14" width="25px" height="25px"><defs><style>.cls-1{fill:#fff;}</style></defs><title>github</title><path class="cls-1" d="M262.54,371.27c-0.65-13,1.14-25.95-.09-38.93-1-10.22-3.92-19.61-10.61-27.5-3-3.51-1.65-4.13,2.05-4.62A159.62,159.62,0,0,0,288.83,292c27.4-10.17,44.93-29.34,51.68-57.73,5.42-22.82,7-45.77-2.12-68.26a70.17,70.17,0,0,0-12.28-19.91c-2.28-2.6-2.59-4.94-1.61-8.14,4.71-15.38,3.23-30.57-1.58-45.68-1.17-3.68-3.29-4.87-7-4.8-12.24.26-23,5.18-33.53,10.58-5.18,2.65-10.15,5.75-15.06,8.88a8.84,8.84,0,0,1-7.51,1.17,200.28,200.28,0,0,0-97.38,0,9.29,9.29,0,0,1-7.95-1.37c-10.94-7.07-22.31-13.3-34.88-17.1a55,55,0,0,0-13.77-2.13c-3.55-.15-5.47,1.26-6.57,4.67-4.86,15.09-6.35,30.3-1.66,45.68,1,3.42.49,5.79-1.81,8.55C83.63,161.07,77.63,178,77.56,197.06c-0.06,13.73.93,27.3,4.78,40.53,9,30.81,30,49.08,60.25,57.64A172.7,172.7,0,0,0,168,300.34c1.29,0.16,2.89-.19,3.64,1.14,0.88,1.55-.72,2.38-1.52,3.32A42.14,42.14,0,0,0,160.81,325c-0.66,3.76-2.6,5.69-6.13,7-23.86,8.56-43.09,2.14-57-19.29-7.07-10.94-16.21-18.93-29.49-21.19a10.12,10.12,0,0,0-2.46-.38c-3.09.27-7.07-.3-8.3,3.13-1.12,3.11,2.16,5.08,4.47,6.47,13,7.86,20.71,19.77,26.61,33.4,6.55,15.14,19.32,22.3,34.89,25.27,10,1.9,19.9,1.16,29.8-.54,5.5-.94,6.06-0.66,6.17,5.08,0.19,10,.2,20,0.21,30,0,12-6.88,16.91-18.4,12.88A203.09,203.09,0,0,1,91,381.31c-50.79-35.79-81.38-84.42-89.27-146-11.08-86.61,32-166.48,105.2-208C144.09,6.24,184.24-2.51,226.63.62,326.85,8,404.08,82.71,418.89,173.77c11.49,70.62-8.6,131.87-58.31,183.1-22.14,22.82-48.89,38.95-78.88,49.6a24.88,24.88,0,0,1-4.8,1.33c-9.08,1.27-14-2.88-14.36-12-0.14-4.16,0-8.33,0-12.5Q262.54,377.26,262.54,371.27Z"/></svg>
