<?xml version="1.0" standalone="no"?>
<!-- Generator: Adobe Fireworks 10, Export SVG Extension by Aaron Beall (http://fireworks.abeall.com) . Version: 0.6.1  -->
<!DOCTYPE svg PUBLIC "-//W3C//DTD SVG 1.1//EN" "http://www.w3.org/Graphics/SVG/1.1/DTD/svg11.dtd">
<svg id="Untitled-Page%201" viewBox="0 0 33 33" style="background-color:#ffffff00" version="1.1"
	xmlns="http://www.w3.org/2000/svg" xmlns:xlink="http://www.w3.org/1999/xlink" xml:space="preserve"
	x="0px" y="0px" width="25px" height="25px"
>
	<g id="Layer%201">
		<path d="M 15.8981 5.4888 C 15.9489 5.4923 15.9976 5.4934 16.0437 5.492 L 16.2098 5.4882 C 16.106 5.4867 16.002 5.487 15.8981 5.4888 ZM 5.5132 15.732 C 6.0142 9.2865 11.0047 5.5755 15.8981 5.4888 C 16.002 5.487 16.106 5.4867 16.2098 5.4882 C 16.3135 5.4867 16.4175 5.487 16.5215 5.4888 C 21.4152 5.575 26.4068 9.2861 26.9078 15.732 C 26.9078 15.732 27.0371 16.372 27.2958 16.372 L 30.2705 16.372 L 30.2705 18.164 C 30.0118 19.06 29.8825 19.956 29.6238 20.852 C 29.4945 20.724 29.3651 20.34 28.9771 20.212 C 28.0718 19.7 25.6144 18.548 24.0624 18.548 C 23.6744 18.548 22.8984 18.548 22.3811 19.444 C 21.8637 20.084 20.0531 29.556 20.0531 30.708 C 20.0531 30.964 20.5704 32.5 21.3464 32.5 L 27.1664 32.5 C 27.9424 31.732 27.9424 30.452 28.0718 29.684 C 28.2011 29.3 28.2011 28.788 28.4598 28.404 L 30.1411 28.404 L 32.2105 17.524 L 32.2105 15.092 C 31.0336 6.8329 25.7853 2.2527 19.8337 0.9166 C 19.111 0.6576 17.998 0.5 16.3773 0.5 L 16.2104 0.5006 L 16.0437 0.5 C 14.4238 0.5 13.3112 0.6572 12.5884 0.916 C 6.6364 2.2518 1.3875 6.8323 0.2105 15.092 L 0.2105 17.524 L 2.2798 28.404 L 3.9612 28.404 C 4.2198 28.788 4.2198 29.3 4.3492 29.684 C 4.4785 30.452 4.4785 31.732 5.2545 32.5 L 11.0746 32.5 C 11.8506 32.5 12.3679 30.964 12.3679 30.708 C 12.3679 29.556 10.5572 20.084 10.0399 19.444 C 9.5225 18.548 8.7465 18.548 8.3585 18.548 C 6.8065 18.548 4.3492 19.7 3.4438 20.212 C 3.0558 20.34 2.9265 20.724 2.7972 20.852 C 2.5385 19.956 2.4092 19.06 2.1505 18.164 L 2.1505 16.372 L 5.1252 16.372 C 5.3839 16.372 5.5132 15.732 5.5132 15.732 ZM 16.3773 5.492 C 16.423 5.4934 16.471 5.4923 16.5215 5.4888 C 16.4175 5.487 16.3135 5.4867 16.2098 5.4882 L 16.3773 5.492 Z" fill="#ffffff"/>
	</g>
</svg>
