<?xml version="1.0" standalone="no"?>
<!-- Generator: Adobe Fireworks 10, Export SVG Extension by Aaron Beall (http://fireworks.abeall.com) . Version: 0.6.1  -->
<!DOCTYPE svg PUBLIC "-//W3C//DTD SVG 1.1//EN" "http://www.w3.org/Graphics/SVG/1.1/DTD/svg11.dtd">
<svg id="Untitled-Page%201" viewBox="0 0 32 32" style="background-color:#ffffff00" version="1.1"
	xmlns="http://www.w3.org/2000/svg" xmlns:xlink="http://www.w3.org/1999/xlink" xml:space="preserve"
	x="0px" y="0px" width="32px" height="32px"
>
	<path d="M 32 5.5 L 32 24.2119 L 0 24.2119 L 0 5.5 L 32 5.5 ZM 30.2592 7.2288 L 30.2592 20.8051 L 1.7408 20.8051 L 1.7408 7.2288 L 30.2592 7.2288 ZM 29.8496 22.5847 C 29.9008 22.6356 30.0032 22.6864 30.0032 22.7881 C 30.0032 22.9407 29.9008 23.0424 29.7984 23.0932 L 28.5696 23.0932 C 28.4672 23.0424 28.3136 22.9407 28.3136 22.7881 C 28.3136 22.6864 28.416 22.6356 28.4672 22.5847 L 29.8496 22.5847 ZM 18.2784 24.822 L 18.2784 25.3305 L 22.2208 25.3305 C 22.272 25.3813 22.272 25.4831 22.2208 26.5 L 9.1648 26.5 L 9.1648 25.3305 L 13.1584 25.3305 C 13.1584 25.2288 13.1584 25.0254 13.2096 24.822 L 18.2784 24.822 Z" fill="#ffffff"/>
</svg>