<svg id="Layer_1" data-name="Layer 1" xmlns="http://www.w3.org/2000/svg" viewBox="0 0 826.43 596.09" width="25px" height="25px"><defs><style>.cls-1{fill:#fff;}</style></defs><title>tv</title><path class="cls-1" d="M647.09,596.09h-468c4.24-9.29,11-17,16-25.85,2.43-4.28,5.58-5.66,10.52-5.65,57.14,0.18,114.29.11,171.43,0.11,1.5,0,3-.11,4.5,0,3.81,0.32,5.53-1.24,5.38-5.18-0.18-4.66,0-9.33,0-14,0-8.06,0-8.07-7.93-8.07q-185.18,0-370.36,0c-2.82,0-5.64-.24-8.46-0.37Q0.09,270.84,0,4.59C0,0.84.84,0,4.59,0q410.75,0.15,821.5.09c0.11,2.49.32,5,.32,7.48q0,260.46,0,520.92c0,9,0,9-8.93,9H449.06c-1.67,0-3.34.09-5,0-3.45-.2-4.8,1.44-4.73,4.79,0.1,5,0,10,0,15,0,7.43,0,7.44,7.56,7.44,56.32,0,112.65.13,169-.16,7.1,0,11.85,1.65,15.46,7.95C636,580.69,642.92,587.5,647.09,596.09ZM412.84,513.75H793.78c7.92,0,7.92,0,7.92-8q0-237,0-473.93c0-8.29,0-8.3-8.16-8.3H32.66c-8.17,0-8.18,0-8.18,8.28q0,236.72,0,473.43c0,8.55,0,8.56,8.41,8.56H412.84Z"/></svg>
